<?xml version="1.0" encoding="utf-8"?>
<!-- Generator: Adobe Illustrator 19.2.1, SVG Export Plug-In . SVG Version: 6.00 Build 0)  -->
<svg version="1.1" id="Слой_1" xmlns="http://www.w3.org/2000/svg" xmlns:xlink="http://www.w3.org/1999/xlink" x="0px"
     y="0px"
     viewBox="0 0 270.2 168.2" style="enable-background:new 0 0 270.2 168.2;" xml:space="preserve">
<style type="text/css">
	.st0{fill:#CDA174;}
</style>
    <g>
	<path class="st0" d="M0,168.2C0,112,0,56.2,0,0c0.9,0,1.7,0,2.5,0C28.3,0,54,0,79.8,0c8.6,0,17.1,0.9,25.2,3.9
		c13.6,5,22.9,14.1,26,28.5c2.4,11.3,2,22.3-4.1,32.6c-2.9,4.8-7.1,8.3-11.8,11.1c-0.9,0.6-1.9,1.1-3.1,1.7c2.8,1.4,5.3,2.6,7.7,4
		c8.6,5.1,14,12.7,16.3,22.2c4.5,19,0.3,35.9-13.6,49.9c-7.2,7.2-16.1,11.1-26.1,12.4c-7.7,1-15.4,1.6-23.1,1.7
		c-23.4,0.2-46.8,0.1-70.2,0.1C2,168.2,1.1,168.2,0,168.2z M38.8,139c3.2,0,6.4,0,9.6,0c11.1-0.1,22.3-0.1,33.4-0.6
		c5.8-0.2,11.2-2.2,15.2-6.8c5.2-6.1,6-13.3,5-20.8c-0.9-7.1-5-11.8-11.6-14.3c-5-1.9-10.2-2.3-15.4-2.3c-11.4,0-22.7,0-34.1,0
		c-0.6,0-1.3,0.1-2,0.1C38.8,109.3,38.8,124,38.8,139z M38.8,66.1c0.6,0.1,1.2,0.2,1.8,0.2c11.2,0,22.4,0.2,33.6-0.1
		c4.5-0.1,9.1-0.9,13.5-2.1c5.3-1.4,9.2-4.8,10.3-10.4c0.5-2.4,0.8-5,0.7-7.4c-0.2-8.7-4-13.4-12.4-15.3c-4.4-1-8.9-1.6-13.4-1.7
		c-10.9-0.2-21.8-0.1-32.8-0.1c-0.4,0-0.9,0.1-1.4,0.1C38.8,41.6,38.8,53.8,38.8,66.1z"/>
        <path class="st0" d="M270.2,111.6c-29.3,0-58.3,0-87.6,0c-0.1,4.5,0.8,8.7,2.3,12.8c4,10.4,12.1,15.4,22.7,16.8
		c5.4,0.7,10.7,0.3,15.9-1.6c4.9-1.9,8.7-4.9,11.3-9.4c1-1.7,2.1-2.4,4.2-2.4c8.9,0.1,17.9,0.1,26.8,0.1c0.8,0,1.6,0,2.5,0
		c-0.2,4.3-1.8,8-3.8,11.4c-8.1,13.6-19.7,22.6-35.3,25.9c-19.1,4.1-37.3,2.1-54.2-8.6c-12.7-8-19.9-19.7-22.5-34.2
		c-2.8-15.2-2.6-30.5,2.2-45.3c4.7-14.6,14.2-25.3,28.1-31.9c12.3-5.8,25.2-6.7,38.5-4.9c9.9,1.3,19.1,4.5,27,10.7
		c9.2,7.2,15.2,16.7,18.7,27.8c2.6,8.3,3.1,16.9,3.1,25.6C270.2,106.6,270.2,109,270.2,111.6z M237.2,90.7
		c-0.4-14.1-9.5-25-26.6-25.4c-16.4-0.3-25.3,10.2-27.1,25.4C201.4,90.7,219.3,90.7,237.2,90.7z"/>
        <path class="st0"
              d="M176.4,23.6c0-5.5,0-11,0-16.5c22.5,0,44.9,0,67.5,0c0,5.5,0,10.9,0,16.5C221.4,23.6,199,23.6,176.4,23.6z"/>
</g>
</svg>
