<svg xmlns="http://www.w3.org/2000/svg" viewBox="0 0 512 512">
	<rect fill="#cda173" x="0" y="0" width="512" height="512"/>
	<path fill="#ffffff" d="M313.4,103H198.6c-52.8,0-95.6,42.8-95.6,95.6v114.8c0,52.8,42.8,95.6,95.6,95.6h114.8 c52.8,0,95.6-42.8,95.6-95.6V198.6C409,145.8,366.2,103,313.4,103z M380.3,313.4c0,37-30,67-67,67H198.6c-37,0-67-30-67-67V198.6 c0-37,30-67,67-67h114.8c37,0,67,30,67,67L380.3,313.4L380.3,313.4z"/>
	<path fill="#ffffff" d="M256,179.5c-42.3,0-76.5,34.3-76.5,76.5s34.3,76.5,76.5,76.5s76.5-34.3,76.5-76.5S298.3,179.5,256,179.5z M256,303.8c-26.3,0-47.8-21.5-47.8-47.8c0-26.4,21.5-47.8,47.8-47.8s47.8,21.5,47.8,47.8C303.8,282.3,282.3,303.8,256,303.8z"/>
	<circle fill="#ffffff" cx="338.3" cy="173.7" r="10.2"/>
</svg>
