<?xml version="1.0" encoding="UTF-8"?>
<svg xmlns="http://www.w3.org/2000/svg" xmlns:xlink="http://www.w3.org/1999/xlink" width="98.481445pt" height="146.5pt" viewBox="0 0 98.481445 146.5" version="1.1">
<defs>
<clipPath id="clip1">
  <path d="M 0 0 L 98.480469 0 L 98.480469 99 L 0 99 Z M 0 0 "/>
</clipPath>
<clipPath id="clip2">
  <path d="M 0 93 L 98.480469 93 L 98.480469 146.5 L 0 146.5 Z M 0 93 "/>
</clipPath>
</defs>
<g id="surface1">
<path style=" stroke:none;fill-rule:nonzero;fill:#000000;fill-opacity:1;" d="M 19.65625 67.367188 C 19.65625 55.003906 19.65625 42.824219 19.65625 30.550781 C 19.835938 30.550781 19.929688 30.460938 20.019531 30.460938 C 25.882813 30.460938 31.746094 30.460938 37.609375 30.550781 C 39.441406 30.550781 41.179688 30.917969 42.828125 31.742188 C 47.957031 34.214844 48.691406 39.433594 47.5 43.007813 C 46.769531 45.203125 45.027344 46.488281 42.921875 47.3125 C 42.644531 47.402344 42.28125 47.585938 42.003906 47.769531 C 42.1875 47.859375 42.460938 47.953125 42.644531 47.953125 C 44.292969 48.410156 45.761719 49.234375 47.042969 50.425781 C 49.242188 52.53125 49.699219 55.1875 49.425781 58.027344 C 48.964844 62.972656 45.027344 66.175781 40.628906 67 C 39.441406 67.183594 38.25 67.367188 37.058594 67.367188 C 31.46875 67.367188 25.882813 67.367188 20.296875 67.367188 C 20.019531 67.367188 19.835938 67.367188 19.65625 67.367188 Z M 26.433594 61.691406 C 26.617188 61.691406 26.707031 61.691406 26.800781 61.691406 C 30.097656 61.691406 33.300781 61.691406 36.601563 61.691406 C 37.332031 61.691406 38.066406 61.597656 38.796875 61.414063 C 40.996094 60.867188 42.371094 59.125 42.554688 56.925781 C 42.738281 54.363281 41.730469 52.347656 39.53125 51.523438 C 38.523438 51.15625 37.425781 50.882813 36.324219 50.882813 C 33.210938 50.792969 30.1875 50.882813 27.074219 50.882813 C 26.890625 50.882813 26.707031 50.882813 26.523438 50.882813 C 26.433594 54.453125 26.433594 58.027344 26.433594 61.691406 Z M 26.433594 45.664063 C 26.617188 45.664063 26.800781 45.664063 26.980469 45.664063 C 29.820313 45.664063 32.660156 45.664063 35.59375 45.664063 C 36.050781 45.664063 36.417969 45.664063 36.875 45.570313 C 39.988281 45.113281 41.636719 43.007813 41.179688 39.890625 C 40.996094 38.335938 40.171875 37.238281 38.796875 36.59375 C 37.792969 36.136719 36.785156 35.953125 35.777344 35.953125 C 32.9375 35.953125 30.003906 35.953125 27.164063 35.953125 C 26.980469 35.953125 26.800781 35.953125 26.617188 35.953125 C 26.433594 39.25 26.433594 42.363281 26.433594 45.664063 Z M 26.433594 45.664063 "/>
<path style=" stroke:none;fill-rule:nonzero;fill:#000000;fill-opacity:1;" d="M 70.402344 67.277344 C 68.019531 67.277344 65.820313 67.277344 63.53125 67.277344 C 63.53125 67 63.53125 66.816406 63.53125 66.542969 C 63.53125 62.148438 63.53125 57.75 63.53125 53.355469 C 63.53125 52.988281 63.4375 52.621094 63.253906 52.257813 C 59.132813 45.203125 55.011719 38.152344 50.890625 31.007813 C 50.796875 30.824219 50.707031 30.640625 50.523438 30.457031 C 50.707031 30.457031 50.890625 30.457031 51.074219 30.457031 C 53.269531 30.457031 55.46875 30.457031 57.667969 30.457031 C 57.851563 30.457031 58.21875 30.640625 58.308594 30.824219 C 60.875 35.40625 63.621094 39.890625 65.730469 44.65625 C 66.1875 45.660156 66.554688 46.578125 67.011719 47.675781 C 67.101563 47.585938 67.195313 47.492188 67.195313 47.402344 C 69.394531 42 72.414063 37.054688 75.253906 31.925781 C 75.898438 30.824219 76.539063 30.367188 77.820313 30.457031 C 79.46875 30.550781 81.210938 30.457031 82.859375 30.457031 C 82.949219 30.457031 83.132813 30.457031 83.316406 30.457031 C 83.132813 30.734375 83.042969 30.917969 82.949219 31.191406 C 78.828125 38.242188 74.707031 45.296875 70.675781 52.347656 C 70.492188 52.714844 70.402344 53.082031 70.402344 53.445313 C 70.402344 57.84375 70.402344 62.148438 70.402344 66.542969 C 70.402344 66.816406 70.402344 67.09375 70.402344 67.277344 Z M 70.402344 67.277344 "/>
<path style=" stroke:none;fill-rule:nonzero;fill:#000000;fill-opacity:1;" d="M 45.484375 116 C 46.125 116 46.675781 116 47.316406 116 C 47.316406 118.746094 47.316406 121.496094 47.316406 124.242188 C 47.226563 124.242188 47.226563 124.242188 47.132813 124.242188 C 46.585938 124.242188 46.035156 124.242188 45.484375 124.242188 C 45.394531 124.242188 45.300781 124.242188 45.300781 124.152344 C 44.476563 122.867188 43.652344 121.496094 42.921875 120.214844 C 42.644531 119.664063 42.371094 119.113281 42.097656 118.5625 C 42.097656 120.394531 42.1875 122.320313 42.1875 124.242188 C 41.546875 124.242188 40.996094 124.242188 40.355469 124.242188 C 40.355469 121.496094 40.355469 118.746094 40.355469 116 C 40.539063 116 40.628906 116 40.8125 116 C 41.269531 116 41.730469 116 42.1875 116 C 42.277344 116 42.371094 116 42.371094 116.089844 C 43.195313 117.375 43.929688 118.65625 44.753906 120.03125 C 45.027344 120.578125 45.300781 121.128906 45.578125 121.679688 C 45.578125 121.679688 45.578125 121.769531 45.667969 121.769531 C 45.394531 119.847656 45.484375 117.921875 45.484375 116 Z M 45.484375 116 "/>
<path style=" stroke:none;fill-rule:nonzero;fill:#000000;fill-opacity:1;" d="M 34.308594 121.128906 C 34.308594 122.136719 34.308594 123.234375 34.308594 124.242188 C 33.667969 124.242188 33.027344 124.242188 32.386719 124.242188 C 32.386719 121.496094 32.386719 118.746094 32.386719 116 C 32.476563 116 32.476563 116 32.476563 116 C 33.761719 116 35.042969 116 36.324219 116 C 36.875 116 37.425781 116.089844 37.882813 116.367188 C 39.074219 117.007813 39.164063 118.382813 38.796875 119.207031 C 38.617188 119.753906 38.15625 120.03125 37.609375 120.214844 C 37.515625 120.214844 37.515625 120.304688 37.425781 120.304688 C 37.425781 120.304688 37.515625 120.304688 37.515625 120.394531 C 38.25 120.578125 38.617188 121.128906 38.707031 121.863281 C 38.796875 122.410156 38.796875 122.867188 38.890625 123.417969 C 38.890625 123.691406 38.890625 123.96875 39.164063 124.242188 C 39.074219 124.242188 38.980469 124.242188 38.980469 124.242188 C 38.523438 124.242188 37.972656 124.242188 37.515625 124.242188 C 37.332031 124.242188 37.242188 124.242188 37.242188 123.96875 C 37.148438 123.511719 37.148438 123.144531 37.148438 122.6875 C 37.148438 122.503906 37.148438 122.226563 37.058594 122.042969 C 36.875 121.402344 36.601563 121.128906 35.960938 121.128906 C 35.410156 121.039063 34.859375 121.128906 34.308594 121.128906 Z M 34.308594 119.664063 C 34.953125 119.664063 35.59375 119.664063 36.234375 119.664063 C 36.324219 119.664063 36.324219 119.664063 36.417969 119.664063 C 36.964844 119.570313 37.332031 119.113281 37.332031 118.5625 C 37.332031 118.015625 36.964844 117.558594 36.417969 117.464844 C 36.324219 117.464844 36.140625 117.464844 36.050781 117.464844 C 35.5 117.464844 35.042969 117.464844 34.492188 117.464844 C 34.402344 117.464844 34.402344 117.464844 34.308594 117.464844 C 34.308594 118.199219 34.308594 118.929688 34.308594 119.664063 Z M 34.308594 119.664063 "/>
<path style=" stroke:none;fill-rule:nonzero;fill:#000000;fill-opacity:1;" d="M 69.300781 121.128906 C 69.300781 122.136719 69.300781 123.234375 69.300781 124.242188 C 68.660156 124.242188 68.019531 124.242188 67.46875 124.242188 C 67.46875 121.496094 67.46875 118.746094 67.46875 116 C 67.558594 116 67.558594 116 67.652344 116 C 68.933594 116 70.214844 116 71.5 116 C 72.046875 116 72.597656 116.089844 73.054688 116.367188 C 74.246094 117.007813 74.339844 118.382813 73.972656 119.207031 C 73.789063 119.753906 73.332031 120.03125 72.78125 120.214844 C 72.691406 120.214844 72.691406 120.304688 72.597656 120.304688 C 72.597656 120.304688 72.691406 120.304688 72.691406 120.394531 C 73.515625 120.671875 73.789063 121.21875 73.878906 121.953125 C 73.972656 122.59375 73.972656 123.144531 74.0625 123.785156 C 74.0625 123.96875 74.15625 124.058594 74.246094 124.242188 C 74.246094 124.242188 74.15625 124.242188 74.0625 124.242188 C 73.515625 124.242188 73.054688 124.242188 72.507813 124.242188 C 72.324219 124.242188 72.230469 124.152344 72.230469 124.058594 C 72.140625 123.601563 72.140625 123.050781 72.046875 122.59375 C 72.046875 122.410156 72.046875 122.226563 71.957031 122.042969 C 71.867188 121.585938 71.5 121.21875 71.042969 121.21875 C 70.582031 121.128906 69.941406 121.128906 69.300781 121.128906 Z M 69.390625 119.664063 C 69.941406 119.664063 70.492188 119.664063 71.042969 119.664063 C 71.132813 119.664063 71.222656 119.664063 71.40625 119.664063 C 72.230469 119.570313 72.597656 118.839844 72.324219 118.105469 C 72.140625 117.648438 71.773438 117.464844 71.316406 117.464844 C 70.765625 117.464844 70.125 117.464844 69.574219 117.464844 L 69.484375 117.464844 C 69.390625 118.199219 69.390625 118.929688 69.390625 119.664063 Z M 69.390625 119.664063 "/>
<path style=" stroke:none;fill-rule:nonzero;fill:#000000;fill-opacity:1;" d="M 75.4375 124.242188 C 75.4375 121.496094 75.4375 118.746094 75.4375 116 C 77.453125 116 79.558594 116 81.574219 116 C 81.574219 116.550781 81.574219 117.007813 81.574219 117.558594 C 80.109375 117.558594 78.734375 117.558594 77.269531 117.558594 C 77.269531 118.105469 77.269531 118.65625 77.269531 119.207031 C 78.460938 119.207031 79.742188 119.207031 80.933594 119.207031 C 80.933594 119.753906 80.933594 120.214844 80.933594 120.671875 C 79.742188 120.671875 78.460938 120.671875 77.269531 120.671875 C 77.269531 121.3125 77.269531 121.953125 77.269531 122.59375 C 78.734375 122.59375 80.203125 122.59375 81.667969 122.59375 C 81.667969 123.144531 81.667969 123.691406 81.667969 124.242188 C 79.558594 124.242188 77.453125 124.242188 75.4375 124.242188 Z M 75.4375 124.242188 "/>
<path style=" stroke:none;fill-rule:nonzero;fill:#000000;fill-opacity:1;" d="M 59.316406 116 C 59.957031 116 60.597656 116 61.238281 116 C 61.238281 116.089844 61.238281 116.089844 61.238281 116.183594 C 61.238281 117.921875 61.238281 119.570313 61.238281 121.3125 C 61.238281 121.402344 61.238281 121.585938 61.238281 121.679688 C 61.332031 122.320313 61.699219 122.6875 62.339844 122.777344 C 62.613281 122.777344 62.890625 122.777344 63.164063 122.777344 C 63.714844 122.6875 64.171875 122.226563 64.171875 121.585938 C 64.171875 121.496094 64.171875 121.402344 64.171875 121.21875 C 64.171875 119.570313 64.171875 117.832031 64.171875 116.183594 C 64.171875 116.089844 64.171875 116.089844 64.171875 116 C 64.8125 116 65.453125 116 66.09375 116 C 66.09375 116.089844 66.09375 116.089844 66.09375 116.183594 C 66.09375 117.921875 66.09375 119.570313 66.09375 121.3125 C 66.09375 121.769531 66.003906 122.226563 65.910156 122.59375 C 65.636719 123.417969 64.996094 123.875 64.171875 124.152344 C 63.164063 124.425781 62.15625 124.425781 61.148438 124.152344 C 60.050781 123.785156 59.5 123.050781 59.316406 121.953125 C 59.316406 121.769531 59.316406 121.585938 59.316406 121.3125 C 59.316406 119.570313 59.316406 117.832031 59.316406 116.089844 C 59.316406 116.089844 59.316406 116.089844 59.316406 116 Z M 59.316406 116 "/>
<path style=" stroke:none;fill-rule:nonzero;fill:#000000;fill-opacity:1;" d="M 29.179688 116 C 29.820313 116 30.460938 116 31.105469 116 C 31.105469 116.089844 31.105469 116.089844 31.105469 116.183594 C 31.105469 117.921875 31.105469 119.664063 31.105469 121.402344 C 31.105469 121.769531 31.011719 122.226563 30.921875 122.59375 C 30.644531 123.417969 30.097656 123.96875 29.273438 124.152344 C 28.171875 124.515625 27.074219 124.515625 26.066406 124.152344 C 24.964844 123.785156 24.417969 122.960938 24.324219 121.863281 C 24.324219 121.679688 24.324219 121.402344 24.324219 121.21875 C 24.324219 119.570313 24.324219 117.921875 24.324219 116.273438 C 24.324219 116.183594 24.324219 116.183594 24.324219 116.089844 C 24.964844 116.089844 25.609375 116.089844 26.25 116.089844 C 26.25 116.183594 26.25 116.183594 26.25 116.273438 C 26.25 118.015625 26.25 119.664063 26.25 121.402344 C 26.25 121.585938 26.25 121.769531 26.339844 121.953125 C 26.433594 122.410156 26.796875 122.777344 27.347656 122.867188 C 27.621094 122.867188 27.988281 122.960938 28.265625 122.867188 C 28.8125 122.777344 29.273438 122.320313 29.363281 121.769531 C 29.363281 121.585938 29.363281 121.496094 29.363281 121.3125 C 29.363281 119.664063 29.363281 117.921875 29.363281 116.273438 C 29.179688 116.183594 29.179688 116.089844 29.179688 116 Z M 29.179688 116 "/>
<path style=" stroke:none;fill-rule:nonzero;fill:#000000;fill-opacity:1;" d="M 17.273438 116 C 19.289063 116 21.304688 116 23.316406 116 C 23.316406 116.550781 23.316406 117.007813 23.316406 117.558594 C 21.945313 117.558594 20.570313 117.558594 19.195313 117.558594 C 19.195313 118.199219 19.195313 118.746094 19.195313 119.390625 C 20.386719 119.390625 21.484375 119.390625 22.675781 119.390625 C 22.675781 119.9375 22.675781 120.394531 22.675781 120.945313 C 21.484375 120.945313 20.386719 120.945313 19.195313 120.945313 C 19.195313 122.042969 19.195313 123.144531 19.195313 124.242188 C 18.554688 124.242188 17.914063 124.242188 17.273438 124.242188 C 17.273438 121.496094 17.273438 118.746094 17.273438 116 Z M 17.273438 116 "/>
<path style=" stroke:none;fill-rule:nonzero;fill:#000000;fill-opacity:1;" d="M 55.929688 117.558594 C 55.929688 119.753906 55.929688 121.953125 55.929688 124.152344 C 55.285156 124.152344 54.644531 124.152344 54.003906 124.152344 C 54.003906 121.953125 54.003906 119.753906 54.003906 117.558594 C 53.179688 117.558594 52.355469 117.558594 51.53125 117.558594 C 51.53125 117.007813 51.53125 116.457031 51.53125 116 C 53.820313 116 56.019531 116 58.308594 116 C 58.308594 116.550781 58.308594 117.007813 58.308594 117.558594 C 57.578125 117.558594 56.753906 117.558594 55.929688 117.558594 Z M 55.929688 117.558594 "/>
<path style=" stroke:none;fill-rule:nonzero;fill:#000000;fill-opacity:1;" d="M 50.613281 116 C 50.613281 118.746094 50.613281 121.496094 50.613281 124.242188 C 49.972656 124.242188 49.332031 124.242188 48.691406 124.242188 C 48.691406 121.496094 48.691406 118.746094 48.691406 116 C 49.332031 116 49.972656 116 50.613281 116 Z M 50.613281 116 "/>
<g clip-path="url(#clip1)" clip-rule="nonzero">
<path style=" stroke:none;fill-rule:evenodd;fill:#000000;fill-opacity:1;" d="M 0 0 L 98.480469 0 L 98.480469 98.46875 L 0 98.46875 Z M 5.234375 5.234375 L 5.234375 93.234375 L 93.25 93.234375 L 93.25 5.234375 Z M 5.234375 5.234375 "/>
</g>
<g clip-path="url(#clip2)" clip-rule="nonzero">
<path style=" stroke:none;fill-rule:evenodd;fill:#000000;fill-opacity:1;" d="M 0 93.417969 L 98.480469 93.417969 L 98.480469 146.5 L 0 146.5 Z M 5.234375 98.652344 L 5.234375 141.265625 L 93.25 141.265625 L 93.25 98.652344 Z M 5.234375 98.652344 "/>
</g>
</g>
</svg>
