<svg xmlns="http://www.w3.org/2000/svg" viewBox="0 0 480 480" fill="#000000">
<path d="M96.4,0.1c0,1-0.1,1.9-0.1,2.9c0,30,0,59.9,0,89.9c0,0.9,0,1.9,0,3.2c-32.2,0-64.3,0-96.4,0c0-32,0-63.9,0-96
	C32.1,0.1,64.3,0.1,96.4,0.1z"/>
<path d="M-0.1,192.1c31.1,0,62.2,0,93.3,0c0.9,0,1.9,0,3,0c0,32,0,63.8,0,95.6c0,0-0.1,0.1-0.1,0.2
	c-0.1,0-0.1,0.1-0.2,0.1c-32,0-64,0.1-95.9,0.1C-0.1,256.1-0.1,224.1-0.1,192.1z"/>
<path d="M-0.1,384.1c22.3,0,44.6,0,66.9,0c8.9,0,17.8,0,26.6,0c0.9,0,1.7,0,2.7,0c0,32,0,63.8,0,95.8
	c-0.6,0.1-1.3,0.2-2,0.2c-31.4,0-62.8,0-94.3,0C-0.1,448.1-0.1,416.1-0.1,384.1z"/>
<path d="M288.5,0.1c0,1-0.1,1.9-0.1,2.9c0,30,0,60,0,89.9c0,0.9,0,1.9,0,3c-32,0-63.9,0-95.9,0
	c-0.1-0.6-0.2-1.2-0.2-1.8c0-30.9,0-61.7,0-92.6c0-0.5,0.1-1,0.1-1.4C224.4,0.1,256.5,0.1,288.5,0.1z"/>
<path d="M480,0.1c0.1,0.9,0.2,1.7,0.2,2.6c0,30.2,0,60.3,0,90.5c0,0.9,0,1.7,0,2.7c-31.9,0-63.7,0-95.7,0
	c0-1-0.1-2-0.1-3c0-26.6,0-53.3,0-79.9c0-4.3,0.1-8.6,0.1-13C416.3,0.1,448.1,0.1,480,0.1z"/>
<path d="M288.4,192.1c0,32,0,63.7,0,95.4c-1.8,0.5-91.3,0.7-95.6,0.2c-0.4-1.7-0.6-92.5-0.1-95.7
	C224.4,192.1,256.3,192.1,288.4,192.1z"/>
<path d="M192.4,480c0-32,0-63.8,0-95.7c31.9,0,63.7,0,95.9,0c0,31.9,0,63.7,0,95.7C256.4,480,224.5,480,192.4,480z"/>
<path d="M480.1,192.1c0,31.9,0,63.7,0,95.7c-31.8,0-63.5,0-95.3,0c-0.5-1.6-0.7-91.7-0.2-95.7
	C416.4,192.1,448.1,192.1,480.1,192.1z"/>
<path d="M479.9,480c-31.8,0-63.5,0-95.1,0c-0.5-1.7-0.7-92-0.2-95.8c31.7,0,63.4,0,95.1,0
	C480.3,385.9,480.5,476.2,479.9,480z"/>
</svg>
