<svg xmlns="http://www.w3.org/2000/svg" viewBox="0 0 771.3 225" fill="#000000">
<path d="M55.2,17.6c0,0.4,0,0.8,0,1.1c0,11.9,0,23.7,0,35.6c0,0.4,0,0.8,0,1.3c-12.7,0-25.4,0-38.1,0c0-12.7,0-25.3,0-38
	C29.8,17.6,42.5,17.6,55.2,17.6z"/>
<path d="M17,93.5c12.3,0,24.6,0,36.9,0c0.4,0,0.8,0,1.2,0c0,12.7,0,25.2,0,37.8c0,0,0,0,0,0.1c0,0,0,0-0.1,0c-12.7,0-25.3,0-37.9,0
	C17,118.8,17,106.2,17,93.5z"/>
<path d="M17,169.5c8.8,0,17.6,0,26.5,0c3.5,0,7,0,10.5,0c0.4,0,0.7,0,1.1,0c0,12.7,0,25.2,0,37.9c-0.2,0-0.5,0.1-0.8,0.1
	c-12.4,0-24.8,0-37.3,0C17,194.8,17,182.1,17,169.5z"/>
<path d="M131.1,17.6c0,0.4,0,0.8,0,1.1c0,11.9,0,23.7,0,35.6c0,0.4,0,0.8,0,1.2c-12.7,0-25.3,0-37.9,0c0-0.2-0.1-0.5-0.1-0.7
	c0-12.2,0-24.4,0-36.6c0-0.2,0-0.4,0-0.6C105.8,17.6,118.5,17.6,131.1,17.6z"/>
<path d="M206.9,17.6c0,0.4,0.1,0.7,0.1,1c0,11.9,0,23.8,0,35.8c0,0.4,0,0.7,0,1.1c-12.6,0-25.2,0-37.8,0c0-0.4,0-0.8,0-1.2
	c0-10.5,0-21.1,0-31.6c0-1.7,0-3.4,0-5.1C181.7,17.6,194.3,17.6,206.9,17.6z"/>
<path d="M274.7,89.7c0.7-0.5,1.4-1,1.9-1.6c11.1-13.2,22.1-26.5,33.3-39.7c5.5-6.5,11.2-13,16.8-19.4c0.2-0.2,0.3-0.5,0.8-1.1
	c-16.7,0-33.1,0-49.7,0c0-3.3,0-6.3,0-9.5c21.1,0,42.2,0,63.5,0c0,1.8-0.1,3.7,0.1,5.6c0.3,2.6-0.6,4.6-2.4,6.7
	c-16.5,19.3-32.9,38.6-49.3,57.9c-0.4,0.4-0.7,0.8-1.2,1.4c0.9,0.7,1.9,0.5,2.8,0.5c16,0,32,0,48,0c1,0,2.1,0,3.3,0
	c0,3.3,0,6.4,0,9.7c-1,0-2,0-2.9,0c-20.7,0-41.4,0-62.1,0c-1,0-1.9,0.1-2.9,0.1C274.7,96.7,274.7,93.2,274.7,89.7z"/>
<path d="M274.7,188.1c0.3-0.6,0.8-1.2,1-1.8c1.4-4.5,4.3-7.8,8.4-10.1c3.9-2.1,8.1-2.8,12.4-3.4c5.7-0.9,11.3-1.9,17-2.9
	c0.8-0.1,1.7-0.5,2.8-0.8c-0.1-2.2-0.1-4.3-0.4-6.4c-0.7-4.1-3.5-6.1-7.2-7.2c-4.2-1.2-8.5-1.1-12.8-0.2c-3.7,0.8-6.3,3-7.8,6.5
	c-0.6,1.3-1,2.7-1.6,4.1c-3.2,0-6.4,0-9.9,0c0.2-1.1,0.4-2,0.6-2.9c1.8-7.8,6.5-12.8,14.2-15c7.2-2.1,14.5-2.2,21.8-0.6
	c1.5,0.3,3.1,0.9,4.5,1.6c5.3,2.3,7.9,6.6,8.4,12.2c0.3,2.9,0.3,5.7,0.3,8.6c0.1,6.5,0,13,0.1,19.4c0,5.8-0.1,11.7,2.9,17.4
	c-1.4,0-2.4,0.1-3.4,0.1c-1.5,0-3,0-4.6,0c-2.8,0-2.8,0-3.6-2.7c-0.4-1.4-0.7-2.8-1.1-4.4c-0.8,0.6-1.4,1-2,1.5
	c-4.8,3.7-10.1,6-16.2,6.8c-4.5,0.5-9,0.1-13.2-1.5c-4.9-1.9-8.3-5.3-9.8-10.5c-0.2-0.7-0.6-1.3-0.9-1.9
	C274.7,191.9,274.7,190,274.7,188.1z M316.1,177.4c-0.4,0-0.7,0-0.9,0.1c-4.7,1-9.5,2.1-14.2,3.1c-2.9,0.6-5.8,1-8.7,1.8
	c-4.2,1.2-6.6,4.5-6.5,8.4c0,3.9,2.5,7.3,6.7,8.4c6.6,1.7,12.8,0.6,18.3-3.7c2-1.6,3.5-3.7,4.3-6.2
	C316.3,185.4,316.1,181.4,316.1,177.4z"/>
<path d="M131.1,93.6c0,12.7,0,25.2,0,37.7c-0.7,0.2-36.1,0.3-37.8,0.1c-0.2-0.7-0.2-36.6,0-37.8C105.8,93.6,118.4,93.6,131.1,93.6z"
	/>
<path d="M93.2,207.4c0-12.7,0-25.2,0-37.8c12.6,0,25.2,0,37.9,0c0,12.6,0,25.2,0,37.8C118.4,207.4,105.9,207.4,93.2,207.4z"/>
<path d="M206.9,93.6c0,12.6,0,25.2,0,37.8c-12.6,0-25.1,0-37.7,0c-0.2-0.6-0.3-36.3-0.1-37.8C181.7,93.6,194.3,93.6,206.9,93.6z"/>
<path d="M206.8,207.4c-12.6,0-25.1,0-37.6,0c-0.2-0.7-0.3-36.4-0.1-37.9c12.5,0,25.1,0,37.6,0C207,170.2,207.1,205.9,206.8,207.4z"
	/>
<path d="M744.1,33.3c-3.9,11.2-7.8,22.3-11.7,33.5c-3.9,11.1-7.7,22.1-11.6,33.3c-3.3,0-6.4,0-9.8,0c-7.6-22.5-15.3-45.2-23-67.8
	c-0.2,0-0.3,0-0.5,0c0,2.2,0,4.3,0,6.5c0,2.3,0,4.6,0,7c0,2.2,0,4.5,0,6.7s0,4.5,0,6.7c0,2.3,0,4.6,0,7c0,2.2,0,4.5,0,6.7
	s0,4.5,0,6.7s0,4.5,0,6.7c0,2.3,0,4.6,0,7c0,2.2,0,4.4,0,6.8c-3.5,0-6.9,0-10.3,0c0-27.2,0-54.4,0-81.6c0.4-0.1,0.7-0.2,1-0.2
	c5,0,9.9,0,15.1,0c7.7,23.1,15.4,46.1,23.2,69.6c8.1-23.4,16-46.4,24-69.5c4.7,0,9.3,0,13.9,0c0.5,1.7,0.7,78.1,0.2,81.6
	c-3.2,0-6.4,0-9.9,0c0-22.2,0-44.4,0-66.6C744.5,33.3,744.3,33.3,744.1,33.3z"/>
<path d="M571.9,56.4c0.5,0.3,0.9,0.5,1.4,0.7c12.5,4.6,15.9,16.6,12.2,27.5c-3,8.7-9.5,13.2-18.3,14.6c-3.5,0.6-7.2,0.9-10.7,0.9
	c-9.7,0.1-19.4,0-29,0c-0.7,0-1.4-0.1-2.1-0.1c-0.5-1.8-0.6-78.6-0.1-81.7c0.6,0,1.2-0.1,1.8-0.1c10.1,0,20.2,0,30.2,0
	c4.2,0,8.3,0.5,12.3,2c11.6,4.2,16.8,17.9,10.8,28.3c-1.5,2.6-3.6,4.7-6.1,6.4C573.6,55.4,572.8,55.8,571.9,56.4z M536,90.1
	c0.4,0.1,0.6,0.3,0.9,0.3c8.6-0.1,17.3,0.2,25.9-0.3c6.8-0.4,11.8-4,12.8-11.9c0.8-6.2-2.2-13.1-10.2-14.9c-2.5-0.5-5.1-0.9-7.6-0.9
	c-6.6-0.1-13.3-0.1-19.9-0.1c-0.6,0-1.2,0.1-1.9,0.2C536,71.8,536,80.9,536,90.1z M536,52.3c0.3,0.2,0.4,0.3,0.6,0.3
	c8.1-0.1,16.3,0,24.4-0.4c6.7-0.4,10.6-4.4,11.1-10.7c0.5-5.8-2.4-11.9-9.5-12.9c-0.9-0.1-1.9-0.3-2.8-0.4
	c-7.4-0.2-14.9-0.3-22.3-0.4c-0.5,0-0.9,0.1-1.5,0.1C536,36.1,536,44.2,536,52.3z"/>
<path d="M402.5,63c4.2,6.3,8.4,12.4,12.5,18.5s8.2,12.1,12.6,18.6c-2.2,0-3.8,0-5.5,0c-2,0-4-0.1-6,0c-1.5,0.1-2.5-0.4-3.3-1.7
	c-5.7-8.4-11.4-16.8-17.1-25.2c-1.9-2.8-3.8-5.5-5.7-8.3c-0.5-0.7-0.9-1.2-1.9-1.2c-7.1,0-14.2,0-21.7,0c-0.1,3.1,0,6.1,0,9.1
	s0,5.9,0,8.9s0,6.1,0,9.1s0,5.9,0,9.2c-1.9,0-3.6,0.1-5.3,0.1c-1.8,0-3.5,0-5.2,0c-0.6-1.8-0.8-77-0.3-81.7c0.6-0.1,1.2-0.2,1.8-0.2
	c12.6,0,25.3-0.1,37.9,0.1c3.5,0,7,0.5,10.4,1.4c8.6,2.2,13.2,8.2,14.8,16.7c0.7,3.4,0.5,6.8-0.2,10.2c-1.4,7.3-5.8,12.1-12.7,14.7
	C406.1,61.9,404.4,62.4,402.5,63z M366.5,54.1c0.6,0.1,0.9,0.2,1.3,0.2c9,0,17.9,0,26.8-0.1c1.9,0,3.8-0.4,5.6-0.9
	c5.2-1.4,8.4-4.9,9.1-10.2c1-7-1.2-12.3-8.3-14.4c-2.6-0.8-5.3-1.2-8-1.2c-8.2-0.2-16.5-0.1-24.7-0.1c-0.6,0-1.2,0.1-2,0.1
	C366.5,36.3,366.5,45.1,366.5,54.1z"/>
<path d="M472.6,101.5c-16.3,0.4-31.5-8.2-37.5-25.5c-4.3-12.3-3.9-24.6,1.1-36.5c5.5-13.1,15.8-20.5,30-22.3
	c6.6-0.8,13.1-0.2,19.3,2c9.6,3.5,16.7,9.7,20.8,19.1c6,13.7,6.1,27.6,0.2,41.4c-5.2,11.9-14.7,18.6-27.3,21.1
	c-0.7,0.1-1.4,0.3-2.1,0.4C475.8,101.3,474.3,101.3,472.6,101.5z M499.7,59.2c-0.4-3.5-0.7-7-1.4-10.4c-1.3-6.2-3.9-11.7-8.7-15.9
	c-6.7-5.9-14.6-7.8-23.2-6.1c-9.9,1.9-17.1,7.3-20.3,17.2c-2.9,8.7-3.2,17.6-1.3,26.5c2.9,12.8,12.8,20.1,22.5,21.4
	c14,1.9,25.2-5.3,29.7-17.1C498.9,69.8,499.5,64.6,499.7,59.2z"/>
<path d="M609.2,179.6c-14.6,0-29,0-43.4,0c-1.3,8.6,5.3,18,13.4,19.6c2.3,0.5,4.6,0.6,6.9,0.2c4.5-0.8,7.8-3.1,10.2-6.9
	c0.9-1.5,1.6-3.1,2.5-4.8c3.4,0,6.8,0,10.5,0c-2.3,9.6-7.6,16.1-16.9,19c-6.2,1.9-12.5,1.8-18.7-0.1c-8.8-2.7-14.5-8.6-17-17.4
	c-2.4-8.2-2.2-16.5,0.3-24.6c3.5-11.1,12.8-17.9,24.4-18.3c7-0.2,13.3,1.5,18.6,6.1c5.1,4.4,7.7,10.1,8.8,16.6
	C609.4,172.4,609.5,175.8,609.2,179.6z M598.6,171.3c-0.5-11.9-8.8-17.5-17.6-16.7c-10.5,0.9-15.5,10.8-14.6,16.7
	C577.1,171.3,587.7,171.3,598.6,171.3z"/>
<path d="M436.6,128c3.3,0,6.5,0,9.8,0c0,8.6,0,17,0,25.9c0.8-0.7,1.3-1,1.7-1.4c7.2-7.3,18.5-7.6,26.1-4.3c6.3,2.8,9.1,8,9.7,14.6
	c0.2,2.6,0.4,5.3,0.4,7.9c0,11,0,21.9,0,32.9c0,0.9,0,1.7,0,2.8c-3.4,0-6.5,0-10,0c0-1-0.1-1.9-0.1-2.8c0-11.1,0-22.2,0-33.4
	c0-2.1-0.2-4.3-0.6-6.4c-1.2-5.6-5-8.6-10.7-8.9c-9.3-0.4-15.5,5.3-16.3,15c-0.1,1.7-0.1,3.4-0.1,5c0,9.5,0,19,0,28.6
	c0,0.9,0,1.7,0,2.6c-2,0.5-7.6,0.6-9.9,0.1C436.6,180.2,436.6,154.2,436.6,128z"/>
<path d="M629.4,56.2c0.3-0.4,0.7-0.9,1-1.5c7.6-11.7,15.2-23.5,22.8-35.2c0.6-1,1.3-1.4,2.5-1.4c3.5,0.1,7,0,11,0
	c-0.6,1-1,1.7-1.5,2.4c-9.9,14.3-19.7,28.5-29.7,42.8c-1,1.4-1.4,2.7-1.4,4.4c0.1,9.8,0,19.7,0,29.5c0,0.9,0,1.7,0,2.7
	c-3.7,0-7.2,0-10.9,0c0-1,0-1.8,0-2.7c0-9.9,0-19.8,0-29.8c0-1.5-0.4-2.7-1.2-4c-9.5-14.2-19-28.4-28.5-42.7c-0.5-0.7-1-1.5-1.7-2.6
	c2.4,0,4.5-0.1,6.6-0.1c2.1,0,4.2,0,6.5,0C613,30.8,621.2,43.5,629.4,56.2z"/>
<path d="M752.9,164.1c-3.5,0-6.6,0-9.7,0c-0.2-0.3-0.3-0.6-0.4-0.9c-1.1-4.9-4.3-7.6-9.2-8.5c-3.3-0.6-6.5-0.3-9.7,0.4
	c-0.8,0.2-1.6,0.4-2.2,0.8c-2.4,1.3-4.1,3.2-4.1,6c0,2.9,1.8,4.9,4.3,5.8c3.7,1.3,7.6,2.3,11.4,3.5c4.1,1.3,8.2,2.5,12.3,3.9
	c2.9,1,5.2,2.8,7,5.3c1.2,1.7,1.9,3.6,2.2,5.7c1.5,12.2-6.6,18.3-14.7,20.5c-6.7,1.9-13.5,1.6-20.1-0.5
	c-8.1-2.5-14.1-10.6-13.8-18.9c3.2,0,6.3,0,9.5,0c0.1,0.3,0.3,0.5,0.4,0.8c1.8,7.1,5,10.1,12.2,11.2c3.2,0.5,6.4,0.2,9.5-0.7
	c2.5-0.8,4.6-2.3,5.9-4.6c2.2-3.9,1-8-3.2-9.7c-2.6-1-5.3-1.7-8-2.5c-4.3-1.3-8.6-2.5-12.9-3.7c-0.8-0.2-1.7-0.6-2.5-0.9
	c-5.8-2.5-9.2-6.9-9.5-13.2c-0.3-6.6,2.8-11.5,8.6-14.7c2.6-1.4,5.5-2.3,8.4-2.6c6.3-0.7,12.4-0.3,18.3,2.3
	C749.7,151.7,752.2,157.2,752.9,164.1z"/>
<path d="M417.4,166.4c-0.3-0.8-0.5-1.4-0.7-2c-3.3-9.7-13.6-13.1-22.1-7.3c-3.5,2.4-5.6,5.9-6.6,10c-1.6,6.7-1.6,13.5,0.1,20.2
	c1.3,5.3,4.3,9.3,9.5,11.2c7.6,2.8,17,0.3,19.7-10c0.3-1.1,0.6-2.3,0.9-3.6c3.2,0,6.4,0,9.8,0c-0.2,1.5-0.4,2.8-0.7,4.1
	c-3.5,14.7-16.3,20-27.6,18.5c-8.4-1.1-14.9-5-19.1-12.4c-1.7-3-2.7-6.3-3.3-9.7c-1.2-7.2-0.9-14.3,1.2-21.4
	c3.8-13.2,14.7-17.5,23.5-17.8c2.9-0.1,6,0.1,8.8,0.7c9.3,2.2,15.3,9.2,16.4,19.3C423.9,166.5,420.8,166.4,417.4,166.4z"/>
<path d="M660.3,185c3.3,0,6.4,0,9.9,0c-0.1,0.9-0.2,1.7-0.3,2.4c-3,16.5-17.2,22.1-28.8,20.2c-5-0.8-9.5-2.6-13.3-6.1
	c-3.7-3.4-6.2-7.5-7.4-12.4c-2.2-8.6-2.2-17.3,0.6-25.8c3.4-10.3,12-16.6,22.9-17c3.4-0.1,6.7,0,10,0.9c7.8,2.2,14.1,8.2,15.5,18.5
	c0,0.1-0.1,0.3-0.2,0.6c-3.1,0-6.3,0-9.6,0c-0.2-0.6-0.4-1.2-0.6-1.8c-3.4-10.2-14.9-13.4-23.2-6.5c-3.6,3-5.3,7-6,11.4
	c-1,5.7-0.9,11.5,0.4,17.2c0.3,1.5,0.8,2.9,1.5,4.3c3.9,8.5,13.6,10.5,20.5,7.3c4.4-2.1,6.6-5.9,7.7-10.4
	C659.9,186.8,660,186,660.3,185z"/>
<path d="M538.8,155.2c0,1.1-0.1,1.8-0.1,2.5c0,11,0,21.9,0,32.9c0,1,0,2.1,0.1,3.1c0.3,2.6,1.6,3.9,4.1,4.2c0.9,0.1,1.9,0,2.9,0
	c0.9,0,1.7-0.1,2.7-0.2c0,3,0,5.9,0,9c-4.6,0.9-9.2,1.2-13.6-0.6c-3.3-1.4-5.4-3.9-5.8-7.6c-0.3-2.7-0.5-5.4-0.5-8.1
	c-0.1-10.7,0-21.4,0-32.1c0-0.9,0-1.7,0-2.8c-2.6,0-4.8,0-7.3,0c0-2.7,0-5.1,0-7.8c2.3,0,4.6,0,7.2,0c0-3.4,0-6.6,0.1-9.7
	c0-3.2,0-6.4,0-9.5c1.9-0.6,7.6-0.6,10.1-0.1c0,6.3,0,12.6,0,19.3c3.4,0,6.6,0,9.8,0c0,2.7,0,5.1,0,7.8
	C545.2,155.2,542.1,155.2,538.8,155.2z"/>
<path d="M701.5,147.4c0,2.8,0,5.1,0,7.8c-3.2,0-6.3,0-9.7,0c-0.1,1.1-0.2,1.8-0.2,2.6c0,10.6,0,21.3,0,31.9c0,1.3,0,2.6,0.2,3.8
	c0.2,2.6,1.5,3.9,4,4.2c0.9,0.1,1.9,0.1,2.9,0c0.9,0,1.7-0.1,2.7-0.1c0,3,0,5.9,0,8.9c-4.7,0.9-9.3,1.2-13.8-0.8
	c-3-1.3-5.1-3.7-5.4-7.1c-0.4-3.5-0.6-7-0.6-10.5c-0.1-9.9,0-19.8,0-29.7c0-0.9,0-1.9,0-3.1c-2.5,0-4.7,0-7.3,0
	c-0.2-2.7-0.1-5.1-0.1-7.9c2.4-0.1,4.8-0.2,7.4-0.3c0-6.5,0-12.9,0-19.4c3.5,0,6.6,0,10.1,0c0,6.5,0,12.8,0,19.4
	C695,147.4,698.1,147.4,701.5,147.4z"/>
<path d="M351.6,206.6c-3,0-5.6,0-8.2,0c-0.5,0-1.1-0.1-1.7-0.2c0-19.6,0-39,0-58.8c2.9-0.2,5.8-0.1,8.9,0c0,1.8,0,3.3,0,5.4
	c2.6-3.3,5.5-5.2,9-6.1c3.5-0.9,6.9-0.6,10.4,0.8c0,3.5,0,7,0,10.7c-0.5-0.1-1-0.2-1.5-0.4c-1.1-0.3-2.3-0.8-3.4-1
	c-5.9-0.9-10.1,1.8-11.9,7.5c-1.1,3.7-1.6,7.5-1.6,11.3c0,9.3,0,18.5,0,27.8C351.6,204.5,351.6,205.3,351.6,206.6z"/>
<path d="M509.4,206.5c-3.2,0-6.3,0-9.4,0c-0.5-1.8-0.7-55.8-0.1-58.8c3.1,0,6.2,0,9.4,0C509.7,149.4,509.9,203.3,509.4,206.5z"/>
<path d="M509.5,128.2c0,3,0,6.1,0,9.3c-3.2,0-6.4,0-9.8,0c0-3.1,0-6.1,0-9.2C501.5,127.7,506.8,127.7,509.5,128.2z"/>
</svg>
