<svg xmlns="http://www.w3.org/2000/svg" viewBox="0 0 595.3 841.9" fill="#ffffff">
    <path d="M160.6,39.4c0,1-0.1,1.9-0.1,2.9c0,30,0,59.9,0,89.9c0,0.9,0,1.9,0,3.2c-32.2,0-64.3,0-96.4,0c0-32,0-63.9,0-96
	C96.3,39.4,128.4,39.4,160.6,39.4z"/>
    <path d="M64.1,231.4c31.1,0,62.2,0,93.3,0c0.9,0,1.9,0,3,0c0,32,0,63.8,0,95.6c0,0-0.1,0.1-0.1,0.2
	c-0.1,0-0.1,0.1-0.2,0.1c-32,0-64,0.1-95.9,0.1C64.1,295.4,64.1,263.4,64.1,231.4z"/>
    <path d="M64.1,423.4c22.3,0,44.6,0,66.9,0c8.9,0,17.8,0,26.6,0c0.9,0,1.7,0,2.7,0c0,32,0,63.8,0,95.8
	c-0.6,0.1-1.3,0.2-2,0.2c-31.4,0-62.8,0-94.3,0C64.1,487.4,64.1,455.4,64.1,423.4z"/>
    <path d="M352.6,39.4c0,1-0.1,1.9-0.1,2.9c0,30,0,60,0,89.9c0,0.9,0,1.9,0,3c-32,0-63.9,0-95.9,0
	c-0.1-0.6-0.2-1.2-0.2-1.8c0-30.9,0-61.7,0-92.6c0-0.5,0.1-1,0.1-1.4C288.6,39.4,320.6,39.4,352.6,39.4z"/>
    <path d="M544.1,39.4c0.1,0.9,0.2,1.7,0.2,2.6c0,30.2,0,60.3,0,90.5c0,0.9,0,1.7,0,2.7c-31.9,0-63.7,0-95.7,0
	c0-1-0.1-2-0.1-3c0-26.6,0-53.3,0-79.9c0-4.3,0.1-8.6,0.1-13C480.4,39.4,512.3,39.4,544.1,39.4z"/>
    <path d="M64.1,672.5c0.7-0.5,1.4-1,1.9-1.6c11.1-13.2,22.1-26.5,33.3-39.7c5.5-6.5,11.2-13,16.8-19.4
	c0.2-0.2,0.3-0.5,0.8-1.1c-16.7,0-33.1,0-49.7,0c0-3.3,0-6.3,0-9.5c21.1,0,42.2,0,63.5,0c0,1.8-0.1,3.7,0.1,5.6
	c0.3,2.6-0.6,4.6-2.4,6.7c-16.5,19.3-32.9,38.6-49.3,57.9c-0.4,0.4-0.7,0.8-1.2,1.4c0.9,0.7,1.9,0.5,2.8,0.5c16,0,32,0,48,0
	c1,0,2.1,0,3.3,0c0,3.3,0,6.4,0,9.7c-1,0-2,0-2.9,0c-20.7,0-41.4,0-62.1,0c-1,0-1.9,0.1-2.9,0.1C64.1,679.5,64.1,676,64.1,672.5z"/>
    <path d="M64.1,770.9c0.3-0.6,0.8-1.2,1-1.8c1.4-4.5,4.3-7.8,8.4-10.1c3.9-2.1,8.1-2.8,12.4-3.4c5.7-0.9,11.3-1.9,17-2.9
	c0.8-0.1,1.7-0.5,2.8-0.8c-0.1-2.2-0.1-4.3-0.4-6.4c-0.7-4.1-3.5-6.1-7.2-7.2c-4.2-1.2-8.5-1.1-12.8-0.2c-3.7,0.8-6.3,3-7.8,6.5
	c-0.6,1.3-1,2.7-1.6,4.1c-3.2,0-6.4,0-9.9,0c0.2-1.1,0.4-2,0.6-2.9c1.8-7.8,6.5-12.8,14.2-15c7.2-2.1,14.5-2.2,21.8-0.6
	c1.5,0.3,3.1,0.9,4.5,1.6c5.3,2.3,7.9,6.6,8.4,12.2c0.3,2.9,0.3,5.7,0.3,8.6c0.1,6.5,0,13,0.1,19.4c0,5.8-0.1,11.7,2.9,17.4
	c-1.4,0-2.4,0.1-3.4,0.1c-1.5,0-3,0-4.6,0c-2.8,0-2.8,0-3.6-2.7c-0.4-1.4-0.7-2.8-1.1-4.4c-0.8,0.6-1.4,1-2,1.5
	c-4.8,3.7-10.1,6-16.2,6.8c-4.5,0.5-9,0.1-13.2-1.5c-4.9-1.9-8.3-5.3-9.8-10.5c-0.2-0.7-0.6-1.3-0.9-1.9
	C64.1,774.7,64.1,772.8,64.1,770.9z M105.5,760.2c-0.4,0-0.7,0-0.9,0.1c-4.7,1-9.5,2.1-14.2,3.1c-2.9,0.6-5.8,1-8.7,1.8
	c-4.2,1.2-6.6,4.5-6.5,8.4c0,3.9,2.5,7.3,6.7,8.4c6.6,1.7,12.8,0.6,18.3-3.7c2-1.6,3.5-3.7,4.3-6.2
	C105.7,768.2,105.5,764.2,105.5,760.2z"/>
    <path d="M352.5,231.5c0,32,0,63.7,0,95.4c-1.8,0.5-91.3,0.7-95.6,0.2c-0.4-1.7-0.6-92.5-0.1-95.7
	C288.6,231.5,320.4,231.5,352.5,231.5z"/>
    <path d="M256.6,519.3c0-32,0-63.8,0-95.7c31.9,0,63.7,0,95.9,0c0,31.9,0,63.7,0,95.7
	C320.5,519.3,288.7,519.3,256.6,519.3z"/>
    <path d="M544.2,231.5c0,31.9,0,63.7,0,95.7c-31.8,0-63.5,0-95.3,0c-0.5-1.6-0.7-91.7-0.2-95.7
	C480.5,231.5,512.3,231.5,544.2,231.5z"/>
    <path d="M544,519.3c-31.8,0-63.5,0-95.1,0c-0.5-1.7-0.7-92-0.2-95.8c31.7,0,63.4,0,95.1,0
	C544.4,425.2,544.6,515.5,544,519.3z"/>
    <path d="M533.5,616.1c-3.9,11.2-7.8,22.3-11.7,33.5c-3.9,11.1-7.7,22.1-11.6,33.3c-3.3,0-6.4,0-9.8,0
	c-7.6-22.5-15.3-45.2-23-67.8c-0.2,0-0.3,0-0.5,0c0,2.2,0,4.3,0,6.5c0,2.3,0,4.6,0,7c0,2.2,0,4.5,0,6.7s0,4.5,0,6.7c0,2.3,0,4.6,0,7
	c0,2.2,0,4.5,0,6.7s0,4.5,0,6.7s0,4.5,0,6.7c0,2.3,0,4.6,0,7c0,2.2,0,4.4,0,6.8c-3.5,0-6.9,0-10.3,0c0-27.2,0-54.4,0-81.6
	c0.4-0.1,0.7-0.2,1-0.2c5,0,9.9,0,15.1,0c7.7,23.1,15.4,46.1,23.2,69.6c8.1-23.4,16-46.4,24-69.5c4.7,0,9.3,0,13.9,0
	c0.5,1.7,0.7,78.1,0.2,81.6c-3.2,0-6.4,0-9.9,0c0-22.2,0-44.4,0-66.6C533.9,616.1,533.7,616.1,533.5,616.1z"/>
    <path d="M361.3,639.2c0.5,0.3,0.9,0.5,1.4,0.7c12.5,4.6,15.9,16.6,12.2,27.5c-3,8.7-9.5,13.2-18.3,14.6
	c-3.5,0.6-7.2,0.9-10.7,0.9c-9.7,0.1-19.4,0-29,0c-0.7,0-1.4-0.1-2.1-0.1c-0.5-1.8-0.6-78.6-0.1-81.7c0.6,0,1.2-0.1,1.8-0.1
	c10.1,0,20.2,0,30.2,0c4.2,0,8.3,0.5,12.3,2c11.6,4.2,16.8,17.9,10.8,28.3c-1.5,2.6-3.6,4.7-6.1,6.4
	C363,638.2,362.2,638.6,361.3,639.2z M325.4,672.9c0.4,0.1,0.6,0.3,0.9,0.3c8.6-0.1,17.3,0.2,25.9-0.3c6.8-0.4,11.8-4,12.8-11.9
	c0.8-6.2-2.2-13.1-10.2-14.9c-2.5-0.5-5.1-0.9-7.6-0.9c-6.6-0.1-13.3-0.1-19.9-0.1c-0.6,0-1.2,0.1-1.9,0.2
	C325.4,654.6,325.4,663.7,325.4,672.9z M325.4,635.1c0.3,0.2,0.4,0.3,0.6,0.3c8.1-0.1,16.3,0,24.4-0.4c6.7-0.4,10.6-4.4,11.1-10.7
	c0.5-5.8-2.4-11.9-9.5-12.9c-0.9-0.1-1.9-0.3-2.8-0.4c-7.4-0.2-14.9-0.3-22.3-0.4c-0.5,0-0.9,0.1-1.5,0.1
	C325.4,618.9,325.4,627,325.4,635.1z"/>
    <path d="M191.9,645.8c4.2,6.3,8.4,12.4,12.5,18.5c4.1,6.1,8.2,12.1,12.6,18.6c-2.2,0-3.8,0-5.5,0c-2,0-4-0.1-6,0
	c-1.5,0.1-2.5-0.4-3.3-1.7c-5.7-8.4-11.4-16.8-17.1-25.2c-1.9-2.8-3.8-5.5-5.7-8.3c-0.5-0.7-0.9-1.2-1.9-1.2c-7.1,0-14.2,0-21.7,0
	c-0.1,3.1,0,6.1,0,9.1c0,3,0,5.9,0,8.9c0,3,0,6.1,0,9.1c0,3,0,5.9,0,9.2c-1.9,0-3.6,0.1-5.3,0.1c-1.8,0-3.5,0-5.2,0
	c-0.6-1.8-0.8-77-0.3-81.7c0.6-0.1,1.2-0.2,1.8-0.2c12.6,0,25.3-0.1,37.9,0.1c3.5,0,7,0.5,10.4,1.4c8.6,2.2,13.2,8.2,14.8,16.7
	c0.7,3.4,0.5,6.8-0.2,10.2c-1.4,7.3-5.8,12.1-12.7,14.7C195.5,644.7,193.8,645.2,191.9,645.8z M155.9,636.9c0.6,0.1,0.9,0.2,1.3,0.2
	c9,0,17.9,0,26.8-0.1c1.9,0,3.8-0.4,5.6-0.9c5.2-1.4,8.4-4.9,9.1-10.2c1-7-1.2-12.3-8.3-14.4c-2.6-0.8-5.3-1.2-8-1.2
	c-8.2-0.2-16.5-0.1-24.7-0.1c-0.6,0-1.2,0.1-2,0.1C155.9,619.1,155.9,627.9,155.9,636.9z"/>
    <path d="M262,684.3c-16.3,0.4-31.5-8.2-37.5-25.5c-4.3-12.3-3.9-24.6,1.1-36.5c5.5-13.1,15.8-20.5,30-22.3
	c6.6-0.8,13.1-0.2,19.3,2c9.6,3.5,16.7,9.7,20.8,19.1c6,13.7,6.1,27.6,0.2,41.4c-5.2,11.9-14.7,18.6-27.3,21.1
	c-0.7,0.1-1.4,0.3-2.1,0.4C265.2,684.1,263.7,684.1,262,684.3z M289.1,642c-0.4-3.5-0.7-7-1.4-10.4c-1.3-6.2-3.9-11.7-8.7-15.9
	c-6.7-5.9-14.6-7.8-23.2-6.1c-9.9,1.9-17.1,7.3-20.3,17.2c-2.9,8.7-3.2,17.6-1.3,26.5c2.9,12.8,12.8,20.1,22.5,21.4
	c14,1.9,25.2-5.3,29.7-17.1C288.3,652.6,288.9,647.4,289.1,642z"/>
    <path d="M398.6,762.4c-14.6,0-29,0-43.4,0c-1.3,8.6,5.3,18,13.4,19.6c2.3,0.5,4.6,0.6,6.9,0.2c4.5-0.8,7.8-3.1,10.2-6.9
	c0.9-1.5,1.6-3.1,2.5-4.8c3.4,0,6.8,0,10.5,0c-2.3,9.6-7.6,16.1-16.9,19c-6.2,1.9-12.5,1.8-18.7-0.1c-8.8-2.7-14.5-8.6-17-17.4
	c-2.4-8.2-2.2-16.5,0.3-24.6c3.5-11.1,12.8-17.9,24.4-18.3c7-0.2,13.3,1.5,18.6,6.1c5.1,4.4,7.7,10.1,8.8,16.6
	C398.8,755.2,398.9,758.6,398.6,762.4z M388,754.1c-0.5-11.9-8.8-17.5-17.6-16.7c-10.5,0.9-15.5,10.8-14.6,16.7
	C366.5,754.1,377.1,754.1,388,754.1z"/>
    <path d="M226,710.8c3.3,0,6.5,0,9.8,0c0,8.6,0,17,0,25.9c0.8-0.7,1.3-1,1.7-1.4c7.2-7.3,18.5-7.6,26.1-4.3
	c6.3,2.8,9.1,8,9.7,14.6c0.2,2.6,0.4,5.3,0.4,7.9c0,11,0,21.9,0,32.9c0,0.9,0,1.7,0,2.8c-3.4,0-6.5,0-10,0c0-1-0.1-1.9-0.1-2.8
	c0-11.1,0-22.2,0-33.4c0-2.1-0.2-4.3-0.6-6.4c-1.2-5.6-5-8.6-10.7-8.9c-9.3-0.4-15.5,5.3-16.3,15c-0.1,1.7-0.1,3.4-0.1,5
	c0,9.5,0,19,0,28.6c0,0.9,0,1.7,0,2.6c-2,0.5-7.6,0.6-9.9,0.1C226,763,226,737,226,710.8z"/>
    <path d="M418.8,639c0.3-0.4,0.7-0.9,1-1.5c7.6-11.7,15.2-23.5,22.8-35.2c0.6-1,1.3-1.4,2.5-1.4c3.5,0.1,7,0,11,0
	c-0.6,1-1,1.7-1.5,2.4c-9.9,14.3-19.7,28.5-29.7,42.8c-1,1.4-1.4,2.7-1.4,4.4c0.1,9.8,0,19.7,0,29.5c0,0.9,0,1.7,0,2.7
	c-3.7,0-7.2,0-10.9,0c0-1,0-1.8,0-2.7c0-9.9,0-19.8,0-29.8c0-1.5-0.4-2.7-1.2-4c-9.5-14.2-19-28.4-28.5-42.7c-0.5-0.7-1-1.5-1.7-2.6
	c2.4,0,4.5-0.1,6.6-0.1c2.1,0,4.2,0,6.5,0C402.4,613.6,410.6,626.3,418.8,639z"/>
    <path d="M542.3,746.9c-3.5,0-6.6,0-9.7,0c-0.2-0.3-0.3-0.6-0.4-0.9c-1.1-4.9-4.3-7.6-9.2-8.5c-3.3-0.6-6.5-0.3-9.7,0.4
	c-0.8,0.2-1.6,0.4-2.2,0.8c-2.4,1.3-4.1,3.2-4.1,6c0,2.9,1.8,4.9,4.3,5.8c3.7,1.3,7.6,2.3,11.4,3.5c4.1,1.3,8.2,2.5,12.3,3.9
	c2.9,1,5.2,2.8,7,5.3c1.2,1.7,1.9,3.6,2.2,5.7c1.5,12.2-6.6,18.3-14.7,20.5c-6.7,1.9-13.5,1.6-20.1-0.5
	c-8.1-2.5-14.1-10.6-13.8-18.9c3.2,0,6.3,0,9.5,0c0.1,0.3,0.3,0.5,0.4,0.8c1.8,7.1,5,10.1,12.2,11.2c3.2,0.5,6.4,0.2,9.5-0.7
	c2.5-0.8,4.6-2.3,5.9-4.6c2.2-3.9,1-8-3.2-9.7c-2.6-1-5.3-1.7-8-2.5c-4.3-1.3-8.6-2.5-12.9-3.7c-0.8-0.2-1.7-0.6-2.5-0.9
	c-5.8-2.5-9.2-6.9-9.5-13.2c-0.3-6.6,2.8-11.5,8.6-14.7c2.6-1.4,5.5-2.3,8.4-2.6c6.3-0.7,12.4-0.3,18.3,2.3
	C539.1,734.5,541.6,740,542.3,746.9z"/>
    <path d="M206.8,749.2c-0.3-0.8-0.5-1.4-0.7-2c-3.3-9.7-13.6-13.1-22.1-7.3c-3.5,2.4-5.6,5.9-6.6,10
	c-1.6,6.7-1.6,13.5,0.1,20.2c1.3,5.3,4.3,9.3,9.5,11.2c7.6,2.8,17,0.3,19.7-10c0.3-1.1,0.6-2.3,0.9-3.6c3.2,0,6.4,0,9.8,0
	c-0.2,1.5-0.4,2.8-0.7,4.1c-3.5,14.7-16.3,20-27.6,18.5c-8.4-1.1-14.9-5-19.1-12.4c-1.7-3-2.7-6.3-3.3-9.7
	c-1.2-7.2-0.9-14.3,1.2-21.4c3.8-13.2,14.7-17.5,23.5-17.8c2.9-0.1,6,0.1,8.8,0.7c9.3,2.2,15.3,9.2,16.4,19.3
	C213.3,749.3,210.2,749.2,206.8,749.2z"/>
    <path d="M449.7,767.8c3.3,0,6.4,0,9.9,0c-0.1,0.9-0.2,1.7-0.3,2.4c-3,16.5-17.2,22.1-28.8,20.2c-5-0.8-9.5-2.6-13.3-6.1
	c-3.7-3.4-6.2-7.5-7.4-12.4c-2.2-8.6-2.2-17.3,0.6-25.8c3.4-10.3,12-16.6,22.9-17c3.4-0.1,6.7,0,10,0.9c7.8,2.2,14.1,8.2,15.5,18.5
	c0,0.1-0.1,0.3-0.2,0.6c-3.1,0-6.3,0-9.6,0c-0.2-0.6-0.4-1.2-0.6-1.8c-3.4-10.2-14.9-13.4-23.2-6.5c-3.6,3-5.3,7-6,11.4
	c-1,5.7-0.9,11.5,0.4,17.2c0.3,1.5,0.8,2.9,1.5,4.3c3.9,8.5,13.6,10.5,20.5,7.3c4.4-2.1,6.6-5.9,7.7-10.4
	C449.3,769.6,449.4,768.8,449.7,767.8z"/>
    <path d="M328.2,738c0,1.1-0.1,1.8-0.1,2.5c0,11,0,21.9,0,32.9c0,1,0,2.1,0.1,3.1c0.3,2.6,1.6,3.9,4.1,4.2
	c0.9,0.1,1.9,0,2.9,0c0.9,0,1.7-0.1,2.7-0.2c0,3,0,5.9,0,9c-4.6,0.9-9.2,1.2-13.6-0.6c-3.3-1.4-5.4-3.9-5.8-7.6
	c-0.3-2.7-0.5-5.4-0.5-8.1c-0.1-10.7,0-21.4,0-32.1c0-0.9,0-1.7,0-2.8c-2.6,0-4.8,0-7.3,0c0-2.7,0-5.1,0-7.8c2.3,0,4.6,0,7.2,0
	c0-3.4,0-6.6,0.1-9.7c0-3.2,0-6.4,0-9.5c1.9-0.6,7.6-0.6,10.1-0.1c0,6.3,0,12.6,0,19.3c3.4,0,6.6,0,9.8,0c0,2.7,0,5.1,0,7.8
	C334.6,738,331.5,738,328.2,738z"/>
    <path d="M490.9,730.2c0,2.8,0,5.1,0,7.8c-3.2,0-6.3,0-9.7,0c-0.1,1.1-0.2,1.8-0.2,2.6c0,10.6,0,21.3,0,31.9
	c0,1.3,0,2.6,0.2,3.8c0.2,2.6,1.5,3.9,4,4.2c0.9,0.1,1.9,0.1,2.9,0c0.9,0,1.7-0.1,2.7-0.1c0,3,0,5.9,0,8.9
	c-4.7,0.9-9.3,1.2-13.8-0.8c-3-1.3-5.1-3.7-5.4-7.1c-0.4-3.5-0.6-7-0.6-10.5c-0.1-9.9,0-19.8,0-29.7c0-0.9,0-1.9,0-3.1
	c-2.5,0-4.7,0-7.3,0c-0.2-2.7-0.1-5.1-0.1-7.9c2.4-0.1,4.8-0.2,7.4-0.3c0-6.5,0-12.9,0-19.4c3.5,0,6.6,0,10.1,0c0,6.5,0,12.8,0,19.4
	C484.4,730.2,487.5,730.2,490.9,730.2z"/>
    <path d="M141,789.4c-3,0-5.6,0-8.2,0c-0.5,0-1.1-0.1-1.7-0.2c0-19.6,0-39,0-58.8c2.9-0.2,5.8-0.1,8.9,0
	c0,1.8,0,3.3,0,5.4c2.6-3.3,5.5-5.2,9-6.1c3.5-0.9,6.9-0.6,10.4,0.8c0,3.5,0,7,0,10.7c-0.5-0.1-1-0.2-1.5-0.4
	c-1.1-0.3-2.3-0.8-3.4-1c-5.9-0.9-10.1,1.8-11.9,7.5c-1.1,3.7-1.6,7.5-1.6,11.3c0,9.3,0,18.5,0,27.8C141,787.3,141,788.1,141,789.4z
	"/>
    <path d="M298.8,789.3c-3.2,0-6.3,0-9.4,0c-0.5-1.8-0.7-55.8-0.1-58.8c3.1,0,6.2,0,9.4,0
	C299.1,732.2,299.3,786.1,298.8,789.3z"/>
    <path d="M298.9,711c0,3,0,6.1,0,9.3c-3.2,0-6.4,0-9.8,0c0-3.1,0-6.1,0-9.2C290.9,710.5,296.2,710.5,298.9,711z"/>
</svg>
