<svg xmlns="http://www.w3.org/2000/svg" viewBox="0 0 512 512">
	<rect fill="#000000" x="0" y="0" width="512" height="512"/>
	<path fill="#ffffff" d="M226.3,246c7-3.5,12.3-7.4,15.8-11.6c6.4-7.6,9.6-17.7,9.6-30.2c0-12.2-3.1-22.6-9.5-31.3 c-10.6-14.2-28.5-21.5-53.8-21.8H88v204.9h93.6c10.5,0,20.4-0.9,29.4-2.8c9-1.8,16.9-5.3,23.5-10.3c5.9-4.3,10.8-9.8,14.7-16.1 c6.2-9.6,9.3-20.5,9.3-32.7c0-11.8-2.7-21.7-8.1-30C244.8,255.7,236.9,249.7,226.3,246z M129.4,186.5h45.2 c9.9,0,18.1,1.1,24.6,3.2c7.5,3.1,11.1,9.4,11.1,19c0,8.6-2.9,14.6-8.5,18c-5.6,3.4-13,5.1-22,5.1h-50.5L129.4,186.5L129.4,186.5 z M200.8,316.7c-5,2.4-12.1,3.6-21,3.6h-50.5v-54.6h51.1c8.9,0.1,15.8,1.2,20.8,3.4c8.8,4,13.2,11.3,13.2,22 C214.6,303.7,210,312.2,200.8,316.7z"/>
	<rect fill="#ffffff" x="302.7" y="160.6" width="89" height="25.5"/>
	<path fill="#ffffff" d="M422.7,261.2c-1.8-11.9-5.9-22.3-12.3-31.3c-6.9-10.2-15.8-17.7-26.5-22.4c-10.7-4.8-22.8-7.1-36.1-7.1 c-22.5,0-40.8,7-54.9,21c-14.1,14-21.2,34.2-21.2,60.4c0,28,7.8,48.3,23.5,60.6c15.6,12.4,33.6,18.6,54.1,18.6 c24.8,0,44-7.4,57.8-22.1c8.8-9.3,13.8-18.4,14.8-27.4h-41c-2.4,4.4-5.2,7.9-8.3,10.4c-5.7,4.6-13.2,6.9-22.3,6.9 c-8.7,0-16-1.9-22.2-5.7c-10.1-6.1-15.4-16.8-16.1-32h111.9C424.2,278.2,423.8,268.1,422.7,261.2z M313.1,265.1 c1.5-9.9,5.1-17.7,10.7-23.4c5.7-5.7,13.7-8.7,24-8.7c9.5,0,17.4,2.7,23.9,8.1c6.4,5.5,9.9,13.4,10.7,24L313.1,265.1L313.1,265.1 z"/>
</svg>
