<?xml version="1.0" encoding="utf-8"?>
<!-- Generator: Adobe Illustrator 19.2.1, SVG Export Plug-In . SVG Version: 6.00 Build 0)  -->
<svg version="1.1" id="Слой_1" xmlns="http://www.w3.org/2000/svg" xmlns:xlink="http://www.w3.org/1999/xlink" x="0px"
     y="0px"
     viewBox="0 0 23.8 13.7" style="enable-background:new 0 0 23.8 13.7;" xml:space="preserve">
<path d="M23.6,12.3c0-0.1-0.1-0.1-0.1-0.2c-0.4-0.7-1.2-1.7-2.4-2.8l0,0l0,0l0,0h0c-0.5-0.5-0.9-0.8-1-1c-0.3-0.3-0.3-0.7-0.2-1
	c0.1-0.3,0.5-0.8,1.1-1.6c0.3-0.4,0.6-0.8,0.8-1.1c1.4-1.9,2-3.1,1.9-3.7l-0.1-0.1c0-0.1-0.2-0.1-0.4-0.2c-0.2-0.1-0.5-0.1-0.8,0
	l-3.6,0c-0.1,0-0.1,0-0.2,0c-0.1,0-0.2,0-0.2,0l-0.1,0l0,0c0,0-0.1,0.1-0.1,0.1c0,0.1-0.1,0.1-0.1,0.2c-0.4,1-0.8,1.9-1.3,2.8
	c-0.3,0.5-0.6,1-0.8,1.3c-0.3,0.4-0.5,0.7-0.6,0.8c-0.2,0.2-0.3,0.3-0.5,0.4c-0.1,0.1-0.2,0.2-0.3,0.1c-0.1,0-0.1,0-0.2,0
	c-0.1-0.1-0.2-0.2-0.3-0.3C14,6.2,13.9,6,13.9,5.8c0-0.2,0-0.4,0-0.5c0-0.1,0-0.3,0-0.6c0-0.3,0-0.4,0-0.5c0-0.3,0-0.7,0-1
	c0-0.4,0-0.7,0-0.9c0-0.2,0-0.4,0-0.7c0-0.2,0-0.4,0-0.6c0-0.1-0.1-0.3-0.1-0.4c-0.1-0.1-0.1-0.2-0.3-0.3c-0.1-0.1-0.2-0.1-0.4-0.2
	c-0.4-0.1-1-0.2-1.7-0.2c-1.5,0-2.5,0.1-3,0.3C8.3,0.4,8.1,0.5,8,0.7C7.9,0.9,7.8,1,7.9,1C8.4,1,8.8,1.2,9,1.5l0.1,0.1
	C9.1,1.8,9.2,2,9.2,2.2c0.1,0.3,0.1,0.6,0.1,0.9c0,0.6,0,1.1,0,1.6c0,0.4-0.1,0.8-0.1,1c0,0.2-0.1,0.4-0.2,0.6
	C9,6.4,8.9,6.5,8.9,6.6c0,0,0,0.1-0.1,0.1c-0.1,0-0.2,0.1-0.3,0.1c-0.1,0-0.3-0.1-0.4-0.2C7.9,6.4,7.8,6.2,7.6,6
	C7.4,5.8,7.2,5.6,7,5.2C6.8,4.8,6.5,4.4,6.3,3.9L6.1,3.5C6,3.3,5.8,3,5.6,2.5C5.4,2.1,5.2,1.6,5,1.2C5,1,4.9,0.9,4.7,0.8l-0.1,0
	c0,0-0.1-0.1-0.2-0.1c-0.1,0-0.2-0.1-0.3-0.1l-3.4,0c-0.3,0-0.6,0.1-0.7,0.2l0,0.1C0,1,0,1,0,1.1c0,0.1,0,0.2,0.1,0.3
	c0.5,1.2,1,2.3,1.6,3.4c0.6,1.1,1.1,2,1.5,2.6c0.4,0.7,0.9,1.3,1.3,1.9c0.4,0.6,0.7,1,0.9,1.1c0.1,0.2,0.3,0.3,0.3,0.4L6,11.2
	c0.2,0.2,0.5,0.4,0.9,0.7c0.4,0.3,0.8,0.6,1.3,0.8c0.5,0.3,1,0.5,1.6,0.7c0.6,0.2,1.2,0.2,1.8,0.2h1.4c0.3,0,0.5-0.1,0.7-0.3l0-0.1
	c0,0,0.1-0.1,0.1-0.2c0-0.1,0-0.2,0-0.3c0-0.4,0-0.7,0.1-1c0.1-0.3,0.1-0.5,0.2-0.6c0.1-0.1,0.2-0.3,0.3-0.4
	c0.1-0.1,0.2-0.2,0.2-0.2c0,0,0.1,0,0.1,0c0.2-0.1,0.4,0,0.7,0.2c0.3,0.2,0.5,0.4,0.8,0.7c0.2,0.3,0.5,0.6,0.8,1
	c0.3,0.4,0.6,0.6,0.9,0.8l0.2,0.1c0.2,0.1,0.4,0.2,0.6,0.3c0.3,0.1,0.5,0.1,0.7,0.1l3.2,0c0.3,0,0.6-0.1,0.7-0.2
	c0.2-0.1,0.3-0.2,0.3-0.3c0-0.1,0-0.3,0-0.4C23.7,12.5,23.7,12.4,23.6,12.3z"/>
</svg>
