<svg xmlns="http://www.w3.org/2000/svg" viewBox="0 0 512 512">
	<rect fill="#000000" x="0" y="0" width="512" height="512"/>
	<path fill="#ffffff" d="M420.3,332.7c-0.4-0.9-0.8-1.6-1.1-2.2c-5.8-10.4-16.7-23.1-33-38.2l-0.3-0.3l-0.2-0.2l-0.2-0.2h-0.2
		c-7.4-7-12-11.7-14-14.2c-3.6-4.6-4.4-9.3-2.4-14c1.4-3.6,6.6-11.1,15.5-22.6c4.7-6.1,8.5-11,11.2-14.7
		c19.9-26.5,28.5-43.4,25.9-50.7l-1-1.7c-0.7-1-2.5-2-5.3-2.8c-2.9-0.9-6.6-1-11.1-0.4l-49.7,0.3c-0.8-0.3-2-0.3-3.5,0.1
		c-1.5,0.3-2.2,0.5-2.2,0.5l-0.9,0.4l-0.7,0.5c-0.6,0.3-1.2,0.9-1.9,1.8c-0.7,0.9-1.3,1.9-1.7,3c-5.4,13.9-11.6,26.9-18.5,38.8
		c-4.3,7.1-8.2,13.3-11.7,18.6c-3.6,5.2-6.6,9.1-9,11.6c-2.4,2.5-4.6,4.5-6.6,6c-2,1.5-3.5,2.1-4.5,1.9c-1-0.2-2-0.5-2.9-0.7
		c-1.6-1-2.9-2.4-3.9-4.2c-1-1.8-1.6-4-2-6.7c-0.3-2.7-0.5-5-0.6-7c-0.1-2,0-4.7,0.1-8.3c0.1-3.6,0.2-6,0.2-7.2
		c0-4.4,0.1-9.1,0.3-14.2c0.2-5.1,0.3-9.2,0.4-12.2c0.1-3,0.2-6.2,0.2-9.5c0-3.3-0.2-6-0.6-7.9c-0.4-1.9-1-3.7-1.8-5.5
		c-0.8-1.8-2-3.2-3.5-4.1c-1.6-1-3.5-1.8-5.8-2.3c-6.1-1.4-13.9-2.1-23.3-2.2c-21.4-0.2-35.2,1.2-41.3,4.1c-2.4,1.3-4.6,3-6.6,5.2
		c-2.1,2.5-2.4,3.9-0.9,4.1c6.9,1,11.8,3.5,14.7,7.4l1,2.1c0.8,1.5,1.6,4.1,2.4,7.9c0.8,3.8,1.3,8,1.6,12.6c0.6,8.4,0.6,15.6,0,21.6
		c-0.6,6-1.1,10.6-1.6,14s-1.3,6-2.3,8.1c-1,2.1-1.7,3.3-2.1,3.8c-0.3,0.5-0.6,0.7-0.9,0.9c-1.5,0.6-3.1,0.9-4.7,0.9
		c-1.6,0-3.6-0.8-5.9-2.4c-2.3-1.6-4.7-3.8-7.2-6.6c-2.5-2.8-5.3-6.8-8.4-11.8c-3.1-5.1-6.3-11-9.7-18l-2.8-5
		c-1.7-3.2-4.1-7.9-7.1-14.1c-3-6.2-5.6-12.1-7.9-17.9c-0.9-2.4-2.3-4.3-4.1-5.5l-0.9-0.5c-0.6-0.5-1.5-0.9-2.8-1.5
		c-1.3-0.5-2.6-0.9-4-1.1l-47.3,0.3c-4.8,0-8.1,1.1-9.8,3.3l-0.7,1c-0.3,0.6-0.5,1.5-0.5,2.8c0,1.3,0.3,2.8,1,4.7
		c6.9,16.2,14.4,31.9,22.5,47s15.2,27.2,21.1,36.4c6,9.2,12.1,17.9,18.3,26.1c6.2,8.2,10.3,13.4,12.3,15.7c2,2.3,3.6,4,4.7,5.2
		l4.3,4.1c2.8,2.8,6.8,6.1,12.2,9.9c5.4,3.9,11.3,7.7,17.8,11.4c6.5,3.7,14.1,6.8,22.7,9.1c8.6,2.4,17,3.3,25.2,2.9h19.9
		c4-0.3,7.1-1.6,9.1-3.8l0.7-0.9c0.5-0.7,0.9-1.8,1.3-3.2c0.4-1.4,0.6-3,0.6-4.7c-0.1-4.9,0.3-9.4,1.1-13.4c0.9-4,1.8-7,2.9-9
		c1.1-2,2.3-3.7,3.7-5.1c1.4-1.4,2.4-2.2,2.9-2.5c0.6-0.3,1-0.5,1.4-0.6c2.8-0.9,6,0,9.8,2.7c3.7,2.7,7.2,6,10.5,10
		c3.3,4,7.2,8.4,11.8,13.4c4.6,4.9,8.6,8.6,12.1,11l3.5,2.1c2.3,1.4,5.3,2.6,9,3.8c3.7,1.1,6.9,1.4,9.7,0.9l44.2-0.7
		c4.4,0,7.8-0.7,10.2-2.2c2.4-1.4,3.9-3,4.3-4.7c0.5-1.7,0.5-3.7,0.1-5.9C421.1,335.1,420.7,333.5,420.3,332.7z"/>
</svg>
