<?xml version="1.0" encoding="utf-8"?>
<!-- Generator: Adobe Illustrator 19.2.1, SVG Export Plug-In . SVG Version: 6.00 Build 0)  -->
<svg version="1.1" id="Слой_1" xmlns="http://www.w3.org/2000/svg" xmlns:xlink="http://www.w3.org/1999/xlink" x="0px"
     y="0px"
     viewBox="0 0 180.7 126.4" style="enable-background:new 0 0 180.7 126.4;" xml:space="preserve">
<g>
	<path d="M88.7,126.4c-8.1-0.2-18-0.3-27.9-0.6c-4.3-0.1-8.5-0.2-12.8-0.5c-5.2-0.3-10.4-0.6-15.6-1.1c-3.8-0.3-7.6-0.7-11.3-1.5
		c-9.5-2.1-15.5-8.1-17.8-17.5c-1-4-1.5-8.1-1.9-12.2C0.2,81.6-0.2,70.1,0,58.6c0.1-5.8,0.4-11.7,0.8-17.5c0.2-4,0.6-8,1.1-11.9
		s0.9-7.9,2.4-11.6c2.8-7.1,7.9-12,15.3-14.1c2.5-0.7,5.1-1,7.7-1.3c3.3-0.4,6.7-0.7,10-0.9C39.9,1.1,42.4,1,45,0.9
		c5.4-0.2,10.8-0.5,16.2-0.6C67.8,0.1,74.4,0,81,0c10.5,0,21,0,31.5,0.2c6.6,0.1,13.3,0.4,19.9,0.7c4.8,0.2,9.7,0.5,14.5,0.9
		c4.5,0.4,9,0.7,13.4,1.8c8.8,2.2,14.4,7.8,16.8,16.5c1.1,3.9,1.7,7.8,2,11.8c0.5,5.6,1.1,11.2,1.3,16.8c0.3,7.1,0.3,14.2,0.2,21.2
		c0,3.9-0.2,7.8-0.5,11.7c-0.2,3.7-0.6,7.3-0.9,11c-0.4,4.2-1,8.3-1.9,12.3c-2,9-7.4,15-16.3,17.6c-2.5,0.7-5.1,1-7.7,1.3
		c-3.3,0.4-6.7,0.7-10,0.9c-2.5,0.2-5,0.3-7.6,0.4c-3.8,0.2-7.6,0.3-11.4,0.5c-4.1,0.1-8.2,0.3-12.3,0.3
		C104.8,126.2,97.7,126.3,88.7,126.4z M72.2,90.2c15.7-9,31.3-18,47-27c-15.7-9.1-31.3-18.1-47-27.1C72.2,54.2,72.2,72.1,72.2,90.2z
		"/>
</g>
</svg>
