<svg xmlns="http://www.w3.org/2000/svg" viewBox="0 0 512 512">
	<rect fill="#ffffff" x="0" y="0" width="512" height="512"/>
	<path fill="#000000" d="M328.5,111.2l-37.6-0.1c-42.2,0-69.5,28-69.5,71.3v32.9h-37.8c-3.2,0-5.9,2.6-5.9,5.9v47.7 c0,3.2,2.6,5.9,5.9,5.9h37.8v120.2c0,3.2,2.6,5.9,5.9,5.9h49.3c3.2,0,5.9-2.6,5.9-5.9V274.8h44.2c3.2,0,5.9-2.6,5.9-5.9v-47.7 c0-1.6-0.6-3.1-1.7-4.2c-1.1-1.1-2.6-1.7-4.2-1.7h-44.2v-27.8c0-13.4,3.2-20.2,20.7-20.2h25.3c3.2,0,5.9-2.6,5.9-5.9V117 C334.3,113.8,331.7,111.2,328.5,111.2z"/>
</svg>
