<?xml version="1.0" encoding="utf-8"?>
<!-- Generator: Adobe Illustrator 19.2.1, SVG Export Plug-In . SVG Version: 6.00 Build 0)  -->
<svg version="1.1" id="Слой_1" xmlns="http://www.w3.org/2000/svg" xmlns:xlink="http://www.w3.org/1999/xlink" x="0px"
     y="0px"
     viewBox="0 0 10 17" style="enable-background:new 0 0 10 17;" xml:space="preserve">
<style type="text/css">
	.st0{fill:#FFFFFF;}
</style>
    <path class="st0" d="M8.9,0.6H6.8c-2.3,0-3.9,1.5-3.9,3.9v1.8H0.8c-0.2,0-0.3,0.1-0.3,0.3v2.6c0,0.2,0.1,0.3,0.3,0.3h2.1v6.6
	c0,0.2,0.1,0.3,0.3,0.3H6c0.2,0,0.3-0.1,0.3-0.3V9.5h2.5c0.2,0,0.3-0.1,0.3-0.3V6.6c0-0.1,0-0.2-0.1-0.2C8.9,6.3,8.8,6.3,8.8,6.3
	H6.3V4.8c0-0.7,0.2-1.1,1.1-1.1h1.4c0.2,0,0.3-0.1,0.3-0.3V0.9C9.2,0.7,9,0.6,8.9,0.6z"/>
</svg>
