<?xml version="1.0" encoding="utf-8"?>
<!-- Generator: Adobe Illustrator 19.2.1, SVG Export Plug-In . SVG Version: 6.00 Build 0)  -->
<svg version="1.1" id="Слой_1" xmlns="http://www.w3.org/2000/svg" xmlns:xlink="http://www.w3.org/1999/xlink" x="0px"
     y="0px"
     viewBox="0 0 13.4 13.2" style="enable-background:new 0 0 13.4 13.2;" xml:space="preserve">
<style type="text/css">
	.st0{fill:#FFFFFF;}
</style>
    <path class="st0" d="M10.4,0H3C1.3,0,0,1.3,0,3v7.2c0,1.7,1.3,3,3,3h7.4c1.7,0,3-1.3,3-3V3C13.4,1.3,12,0,10.4,0z M6.7,9.9
	c-1.8,0-3.3-1.5-3.3-3.3s1.5-3.3,3.3-3.3S10,4.8,10,6.6S8.5,9.9,6.7,9.9z M10.7,3.3C10.3,3.3,10,3,10,2.6S10.3,2,10.7,2
	s0.7,0.3,0.7,0.7S11.1,3.3,10.7,3.3z"/>
</svg>
